# Blender 4.2.2 LTS
# www.blender.org
mtllib car.mtl
o Cylinder
v -0.251051 -0.120411 -0.544635
v -0.143167 -0.120411 -0.544635
v -0.251051 -0.189436 -0.516044
v -0.143167 -0.189436 -0.516044
v -0.251051 -0.218027 -0.447019
v -0.143167 -0.218027 -0.447019
v -0.251051 -0.189436 -0.377994
v -0.143167 -0.189436 -0.377994
v -0.251051 -0.120411 -0.349403
v -0.143167 -0.120411 -0.349403
v -0.251051 -0.051386 -0.377994
v -0.143167 -0.051386 -0.377994
v -0.251051 -0.022795 -0.447019
v -0.143167 -0.022795 -0.447019
v -0.251051 -0.051386 -0.516044
v -0.143167 -0.051386 -0.516044
v -0.145246 0.247790 -0.443834
v 0.129541 0.247790 -0.443834
v -0.145246 0.247790 0.075995
v 0.129541 0.247790 0.075995
v -0.248283 -0.100508 -0.639869
v -0.248283 0.078839 -0.634710
v 0.232578 -0.100508 -0.639869
v 0.232578 0.078839 -0.634710
v -0.228486 -0.132106 -0.583122
v 0.212781 -0.132106 -0.583122
v -0.210584 0.111397 0.248702
v 0.194879 0.111397 0.248702
v -0.208346 -0.137909 0.639595
v -0.248283 0.056914 0.618507
v 0.192641 -0.137909 0.639595
v 0.232578 0.056914 0.618507
v 0.232578 -0.045656 0.673127
v -0.248283 -0.045656 0.673127
v -0.251051 -0.120411 0.335665
v -0.143167 -0.120411 0.335665
v -0.251051 -0.189436 0.364256
v -0.143167 -0.189436 0.364256
v -0.251051 -0.218027 0.433281
v -0.143167 -0.218027 0.433281
v -0.251051 -0.189436 0.502306
v -0.143167 -0.189436 0.502306
v -0.251051 -0.120411 0.530897
v -0.143167 -0.120411 0.530897
v -0.251051 -0.051386 0.502306
v -0.143167 -0.051386 0.502306
v -0.251051 -0.022795 0.433281
v -0.143167 -0.022795 0.433281
v -0.251051 -0.051386 0.364256
v -0.143167 -0.051386 0.364256
v 0.128121 -0.120411 0.335665
v 0.236006 -0.120411 0.335665
v 0.128121 -0.189436 0.364256
v 0.236006 -0.189436 0.364256
v 0.128121 -0.218027 0.433281
v 0.236006 -0.218027 0.433281
v 0.128121 -0.189436 0.502306
v 0.236006 -0.189436 0.502306
v 0.128121 -0.120411 0.530897
v 0.236006 -0.120411 0.530897
v 0.128121 -0.051386 0.502306
v 0.236006 -0.051386 0.502306
v 0.128121 -0.022795 0.433281
v 0.236006 -0.022795 0.433281
v 0.128121 -0.051386 0.364256
v 0.236006 -0.051386 0.364256
v 0.128121 -0.120411 -0.544635
v 0.236006 -0.120411 -0.544635
v 0.128121 -0.189436 -0.516044
v 0.236006 -0.189436 -0.516044
v 0.128121 -0.218027 -0.447019
v 0.236006 -0.218027 -0.447019
v 0.128121 -0.189436 -0.377994
v 0.236006 -0.189436 -0.377994
v 0.128121 -0.120411 -0.349403
v 0.236006 -0.120411 -0.349403
v 0.128121 -0.051386 -0.377994
v 0.236006 -0.051386 -0.377994
v 0.128121 -0.022795 -0.447019
v 0.236006 -0.022795 -0.447019
v 0.128121 -0.051386 -0.516044
v 0.236006 -0.051386 -0.516044
vn -0.0000 -0.3827 -0.9239
vn -0.0000 -0.9239 -0.3827
vn -0.0000 -0.9239 0.3827
vn -0.0000 -0.3827 0.9239
vn -0.0000 0.3827 0.9239
vn -0.0000 0.9239 0.3827
vn 1.0000 -0.0000 -0.0000
vn -0.0000 0.9239 -0.3827
vn -0.0000 0.3827 -0.9239
vn -1.0000 -0.0000 -0.0000
vn -0.0000 0.7488 -0.6628
vn 0.8566 0.5158 0.0120
vn -0.0000 0.7848 0.6198
vn -0.0000 1.0000 -0.0000
vn -0.0000 0.0288 -0.9996
vn -0.0000 -0.8737 -0.4865
vn -0.9017 -0.4320 0.0155
vn 0.9017 -0.4320 0.0155
vn -0.0000 -1.0000 -0.0047
vn -0.0000 0.4700 0.8827
vn -0.0000 0.9893 0.1458
vn -0.0000 -0.3416 0.9398
vn -0.8566 0.5158 0.0120
vt 0.594272 0.680416
vt 0.594272 0.706388
vt 0.567935 0.706388
vt 0.567935 0.680416
vt 0.541599 0.706388
vt 0.541599 0.680416
vt 0.515263 0.706388
vt 0.515263 0.680416
vt 0.488927 0.706388
vt 0.488927 0.680416
vt 0.462590 0.706388
vt 0.462590 0.680416
vt 0.436254 0.706388
vt 0.436254 0.680416
vt 0.861089 0.779058
vt 0.802734 0.803230
vt 0.744379 0.779058
vt 0.720208 0.720703
vt 0.744379 0.662348
vt 0.802734 0.659879
vt 0.861089 0.662348
vt 0.885261 0.720703
vt 0.409918 0.706388
vt 0.409918 0.680416
vt 0.383581 0.706388
vt 0.383581 0.680416
vt 0.861089 0.779058
vt 0.861089 0.662348
vt 0.379125 0.629134
vt 0.115195 0.629134
vt 0.016228 0.464300
vt 0.478091 0.464300
vt 0.675982 0.887625
vt 0.954152 0.858438
vt 0.011471 0.870183
vt 0.166584 0.997898
vt 0.515934 0.997898
vt 0.866353 0.646736
vt 0.609412 0.646736
vt 0.558909 0.537977
vt 0.916856 0.537977
vt 0.625000 0.396647
vt 0.875000 0.396647
vt 0.875000 0.502691
vt 0.625000 0.502691
vt 0.478091 0.330793
vt 0.016228 0.330793
vt 0.035243 0.274091
vt 0.459076 0.274091
vt 0.008096 0.759161
vt 0.049042 0.726818
vt 0.964733 0.730843
vt 0.979237 0.791057
vt 0.007591 0.774104
vt 0.968871 0.803489
vt 0.968465 0.718413
vt 0.048726 0.721522
vt 0.375000 0.750000
vt 0.125000 0.750000
vt 0.125000 0.500000
vt 0.375000 0.500000
vt 0.991309 0.337307
vt 0.975908 0.433250
vt 0.493009 0.433250
vt 0.482690 0.337307
vt 0.917093 0.254766
vt 0.949177 0.337307
vt 0.524822 0.337307
vt 0.546562 0.254766
vt 0.016289 0.881564
vt 0.965764 0.865327
vt 0.680392 0.894659
vt 0.533165 1.001770
vt 0.163863 0.993616
vt 0.011464 0.876222
vt 0.957350 0.858005
vt 0.944309 0.858438
vt 0.968794 0.803489
s 0
usemtl Body
f 1/1/1 2/2/1 4/3/1 3/4/1
f 3/4/2 4/3/2 6/5/2 5/6/2
f 5/6/3 6/5/3 8/7/3 7/8/3
f 7/8/4 8/7/4 10/9/4 9/10/4
f 9/10/5 10/9/5 12/11/5 11/12/5
f 11/12/6 12/11/6 14/13/6 13/14/6
f 4/15/7 2/16/7 16/17/7 14/18/7 12/19/7 10/20/7 8/21/7 6/22/7
f 13/14/8 14/13/8 16/23/8 15/24/8
f 15/24/9 16/23/9 2/25/9 1/26/9
f 1/16/10 3/27/10 5/22/10 7/28/10 9/20/10 11/19/10 13/18/10 15/17/10
f 17/29/11 18/30/11 24/31/11 22/32/11
f 28/33/12 32/34/12 24/35/12 18/36/12 20/37/12
f 20/38/13 19/39/13 27/40/13 28/41/13
f 20/42/14 18/43/14 17/44/14 19/45/14
f 21/46/15 22/32/15 24/31/15 23/47/15
f 26/48/16 25/49/16 21/46/16 23/47/16
f 21/50/17 25/51/17 29/52/17 34/53/17
f 23/54/18 33/55/18 31/56/18 26/57/18
f 29/58/19 25/59/19 26/60/19 31/61/19
f 33/62/20 32/63/20 30/64/20 34/65/20
f 28/41/21 27/40/21 30/64/21 32/63/21
f 31/66/22 33/67/22 34/68/22 29/69/22
f 22/70/23 30/71/23 27/72/23 19/73/23 17/74/23
f 22/75/10 21/50/10 34/53/10 30/76/10
f 24/35/7 32/77/7 33/78/7 23/54/7
f 35/1/1 36/2/1 38/3/1 37/4/1
f 37/4/2 38/3/2 40/5/2 39/6/2
f 39/6/3 40/5/3 42/7/3 41/8/3
f 41/8/4 42/7/4 44/9/4 43/10/4
f 43/10/5 44/9/5 46/11/5 45/12/5
f 45/12/6 46/11/6 48/13/6 47/14/6
f 38/15/7 36/16/7 50/17/7 48/18/7 46/19/7 44/20/7 42/21/7 40/22/7
f 47/14/8 48/13/8 50/23/8 49/24/8
f 49/24/9 50/23/9 36/25/9 35/26/9
f 35/16/10 37/27/10 39/22/10 41/28/10 43/20/10 45/19/10 47/18/10 49/17/10
f 51/1/1 52/2/1 54/3/1 53/4/1
f 53/4/2 54/3/2 56/5/2 55/6/2
f 55/6/3 56/5/3 58/7/3 57/8/3
f 57/8/4 58/7/4 60/9/4 59/10/4
f 59/10/5 60/9/5 62/11/5 61/12/5
f 61/12/6 62/11/6 64/13/6 63/14/6
f 54/15/7 52/16/7 66/17/7 64/18/7 62/19/7 60/20/7 58/21/7 56/22/7
f 63/14/8 64/13/8 66/23/8 65/24/8
f 65/24/9 66/23/9 52/25/9 51/26/9
f 51/16/10 53/27/10 55/22/10 57/28/10 59/20/10 61/19/10 63/18/10 65/17/10
f 67/1/1 68/2/1 70/3/1 69/4/1
f 69/4/2 70/3/2 72/5/2 71/6/2
f 71/6/3 72/5/3 74/7/3 73/8/3
f 73/8/4 74/7/4 76/9/4 75/10/4
f 75/10/5 76/9/5 78/11/5 77/12/5
f 77/12/6 78/11/6 80/13/6 79/14/6
f 70/15/7 68/16/7 82/17/7 80/18/7 78/19/7 76/20/7 74/21/7 72/22/7
f 79/14/8 80/13/8 82/23/8 81/24/8
f 81/24/9 82/23/9 68/25/9 67/26/9
f 67/16/10 69/27/10 71/22/10 73/28/10 75/20/10 77/19/10 79/18/10 81/17/10
